<svg xmlns="http://www.w3.org/2000/svg" width="24" height="24" viewBox="0 0 24 24" fill="none" stroke="currentColor" stroke-width="2" stroke-linecap="round" stroke-linejoin="round">
  <circle cx="13.5" cy="6.5" r="2.5" fill="#3B82F6"/>
  <circle cx="19" cy="13" r="2" fill="#8B5CF6"/>
  <circle cx="6" cy="12" r="3" fill="#EF4444"/>
  <circle cx="9" cy="18" r="2" fill="#10B981"/>
  <circle cx="17" cy="18" r="2" fill="#F59E0B"/>
  <path d="M12 2C6.48 2 2 6.48 2 12s4.48 10 10 10c.84 0 1.5-.67 1.5-1.5 0-.39-.15-.74-.39-1.01-.23-.26-.38-.61-.38-.99 0-.83.67-1.5 1.5-1.5H16c3.31 0 6-2.69 6-6 0-4.96-4.49-9-10-9z" stroke="#3B82F6"/>
</svg> 